# xmcd
#
# Track frame offsets: 
#        150
#        10425
#        23290
#        35227
#        48581
#        62652
#        76995
#        88579
#        102946
#        114992
#        126488
#        137657
#        148958
#        161786
#        175217
#        189820
#        204875
#        218304
#
# Disc length: 3102 seconds
#
# Revision: 0
# Processed by: cddbd v1.5.2PL0 Copyright (c) Steve Scherf et al.
# Submitted via: ExactAudioCopyFreeDBPlugin 1.0
#
DISCID=f20c1c12
DTITLE=Various Artist - Solid Gold Blues CD1
DYEAR=2007
DGENRE=Blues
TTITLE0=John Lee Hooker - Dimples
TTITLE1=Muddy Waters - Hoochie Coochie Man
TTITLE2=Little Walter - My Babe
TTITLE3=B.B. King - Woke Up This Morning
TTITLE4=Howlin' Wolf - Smokestack Lightnin
TTITLE5=Lowell Fulson - Reconsider Baby
TTITLE6=Sonny Boy Williamson - Don't Start Me Talkin
TTITLE7=Elmore James - Dust My Broom
TTITLE8=Robert Johnson - Cross Road Blues
TTITLE9=Leadbelly - Rock Island Line
TTITLE10=Big Bill Broonzy - All By Myself
TTITLE11=Blind Willie McTelll - Statesboro Blues
TTITLE12=Skip James - I'm So Glad
TTITLE13=Mississippi John Hurt - O' Lee Blues
TTITLE14=Lonnie Johnson - Racheteer Blues
TTITLE15=Blind Willie Johnson - Dark Was The Night
TTITLE16=Son House - Walking Blues
TTITLE17=Charley Patton - Spoonful Blues
EXTD=
EXTT0=
EXTT1=
EXTT2=
EXTT3=
EXTT4=
EXTT5=
EXTT6=
EXTT7=
EXTT8=
EXTT9=
EXTT10=
EXTT11=
EXTT12=
EXTT13=
EXTT14=
EXTT15=
EXTT16=
EXTT17=
PLAYORDER=
